# xmcd CD database file
#
# Track frame offsets:
#	150
#	14496
#	32225
#	50500
#	67683
#	87148
#	104559
#	119656
#	135976
#	147267
#	160530
#	190350
#
# Disc length: 3397 seconds
#
# Revision: 0
# Processed by: cddbd v1.5.2PL0 Copyright (c) Steve Scherf et al.
# Submitted via: CDex 1.51
#
DISCID=a00d430c
DTITLE=Mafalda Sacchetti - Imprevisível
DYEAR=2004
DGENRE=Jazz
TTITLE0=Cantando blues
TTITLE1=Imprevisível
TTITLE2=Nunca é tarde
TTITLE3=Dança (ao mar e à lua)
TTITLE4=Cretcheu
TTITLE5=Mal amada
TTITLE6=Eterno desafio
TTITLE7=Eu sabia meu amor
TTITLE8=Tango para 2
TTITLE9=As mãos no fogo
TTITLE10=Um último Encore
TTITLE11=Bónus "Making of"
EXTD=YEAR: 2004
EXTT0=
EXTT1=
EXTT2=
EXTT3=
EXTT4=
EXTT5=
EXTT6=
EXTT7=
EXTT8=
EXTT9=
EXTT10=
EXTT11=
PLAYORDER=
